<svg width="48" height="48" viewBox="0 0 48 48" fill="none" xmlns="http://www.w3.org/2000/svg">
<path d="M30 28C24.66 28 14 30.66 14 36V40H46V36C46 30.66 35.34 28 30 28ZM12 20V14H8V20H2V24H8V30H12V24H18V20M30 24C32.1217 24 34.1566 23.1571 35.6569 21.6569C37.1571 20.1566 38 18.1217 38 16C38 13.8783 37.1571 11.8434 35.6569 10.3431C34.1566 8.84285 32.1217 8 30 8C27.8783 8 25.8434 8.84285 24.3431 10.3431C22.8429 11.8434 22 13.8783 22 16C22 18.1217 22.8429 20.1566 24.3431 21.6569C25.8434 23.1571 27.8783 24 30 24Z" fill="#FFF7F7"/>
</svg>
