<svg width="24" height="19" viewBox="0 0 24 19" fill="none" xmlns="http://www.w3.org/2000/svg">
<path d="M20.0236 7.70953C19.2234 3.32455 15.3953 0 10.7815 0V3.39067C12.3756 3.39291 13.9038 4.02718 15.0311 5.15442C16.1583 6.28165 16.7926 7.80987 16.7948 9.40402C16.7921 10.9977 16.1578 12.5254 15.0308 13.6522C13.9038 14.7791 12.376 15.4132 10.7823 15.4157V18.808C15.3953 18.8046 19.2251 15.4801 20.0244 11.0977H24V7.70699H20.0244L20.0236 7.70953ZM16.0523 9.40487C16.0536 8.15553 15.6109 6.94637 14.8033 5.99317C13.9957 5.03997 12.8757 4.40475 11.6431 4.20086C10.4105 3.99697 9.14555 4.23769 8.074 4.88005C7.00246 5.52241 6.19402 6.52463 5.79296 7.70784H0V11.0985H5.79296C6.19352 12.2822 7.00174 13.285 8.07333 13.9279C9.14491 14.5708 10.4101 14.8119 11.643 14.6081C12.8759 14.4044 13.9963 13.7691 14.8041 12.8157C15.612 11.8623 16.0546 10.6528 16.0531 9.40317L16.0523 9.40487Z" fill="white"/>
</svg>
